{
	"asset":{
		"generator":"Khronos glTF Blender I/O v3.5.30",
		"version":"2.0"
	},
	"scene":0,
	"scenes":[
		{
			"name":"Scene",
			"nodes":[
				0
			]
		}
	],
	"nodes":[
		{
			"mesh":0,
			"name":"\u7403"
		}
	],
	"animations":[
		{
			"channels":[
				{
					"sampler":0,
					"target":{
						"node":0,
						"path":"translation"
					}
				},
				{
					"sampler":1,
					"target":{
						"node":0,
						"path":"rotation"
					}
				},
				{
					"sampler":2,
					"target":{
						"node":0,
						"path":"scale"
					}
				}
			],
			"name":"\u7403",
			"samplers":[
				{
					"input":4,
					"interpolation":"LINEAR",
					"output":5
				},
				{
					"input":4,
					"interpolation":"LINEAR",
					"output":6
				},
				{
					"input":4,
					"interpolation":"LINEAR",
					"output":7
				}
			]
		}
	],
	"meshes":[
		{
			"name":"\u7403",
			"primitives":[
				{
					"attributes":{
						"POSITION":0,
						"TEXCOORD_0":1,
						"NORMAL":2
					},
					"indices":3
				}
			]
		}
	],
	"accessors":[
		{
			"bufferView":0,
			"componentType":5126,
			"count":1118,
			"max":[
				0.9999997019767761,
				1,
				0.9999993443489075
			],
			"min":[
				-3.554229497909546,
				-1,
				-1
			],
			"type":"VEC3"
		},
		{
			"bufferView":1,
			"componentType":5126,
			"count":1118,
			"type":"VEC2"
		},
		{
			"bufferView":2,
			"componentType":5126,
			"count":1118,
			"type":"VEC3"
		},
		{
			"bufferView":3,
			"componentType":5123,
			"count":5760,
			"type":"SCALAR"
		},
		{
			"bufferView":4,
			"componentType":5126,
			"count":2,
			"max":[
				0.041666666666666664
			],
			"min":[
				0
			],
			"type":"SCALAR"
		},
		{
			"bufferView":5,
			"componentType":5126,
			"count":2,
			"type":"VEC3"
		},
		{
			"bufferView":6,
			"componentType":5126,
			"count":2,
			"type":"VEC4"
		},
		{
			"bufferView":7,
			"componentType":5126,
			"count":2,
			"type":"VEC3"
		}
	],
	"bufferViews":[
		{
			"buffer":0,
			"byteLength":13416,
			"byteOffset":0,
			"target":34962
		},
		{
			"buffer":0,
			"byteLength":8944,
			"byteOffset":13416,
			"target":34962
		},
		{
			"buffer":0,
			"byteLength":13416,
			"byteOffset":22360,
			"target":34962
		},
		{
			"buffer":0,
			"byteLength":11520,
			"byteOffset":35776,
			"target":34963
		},
		{
			"buffer":0,
			"byteLength":8,
			"byteOffset":47296
		},
		{
			"buffer":0,
			"byteLength":24,
			"byteOffset":47304
		},
		{
			"buffer":0,
			"byteLength":32,
			"byteOffset":47328
		},
		{
			"buffer":0,
			"byteLength":24,
			"byteOffset":47360
		}
	],
	"buffers":[
		{
			"byteLength":47384,
			"uri":"rootPlayer.bin"
		}
	]
}
