# Blender 3.5.0
# www.blender.org
mtllib dodecahedron.mtl
o Mesh1_Group1_Model
v 0.000000 0.499996 0.654510
v 0.000000 0.809017 0.154510
v -0.475531 0.654507 -0.154507
v -0.769421 0.250001 0.154510
v -0.475531 0.154509 0.654510
v 0.475530 0.154509 0.654510
v 0.769420 0.250001 0.154510
v 0.475530 0.654507 -0.154507
v 0.293890 -0.404508 0.654510
v 0.475530 -0.654508 0.154510
v 0.769420 -0.249999 -0.154507
v -0.293890 -0.404508 0.654510
v -0.475531 -0.654508 0.154510
v 0.000000 -0.809016 -0.154507
v -0.769421 -0.249999 -0.154507
v -0.293890 0.404507 -0.654510
v -0.475531 -0.154508 -0.654510
v 0.293890 0.404507 -0.654510
v 0.475530 -0.154508 -0.654510
v 0.000000 -0.499999 -0.654510
vn -0.5257 0.7236 0.4472
vn 0.5257 0.7236 0.4472
vn 0.8507 -0.2764 0.4472
vn -0.0000 -0.8944 0.4472
vn -0.8506 -0.2764 0.4472
vn -0.8507 0.2764 -0.4472
vn -0.0000 0.8944 -0.4472
vn 0.8507 0.2764 -0.4472
vn 0.5257 -0.7236 -0.4472
vn -0.5257 -0.7236 -0.4472
vn -0.0000 -0.0000 -1.0000
vn -0.0000 -0.0000 1.0000
vn 0.8506 -0.2764 0.4472
vn -0.8507 -0.2764 0.4472
vn 0.8506 0.2764 -0.4472
vt 54.799000 10.683200
vt -5.785290 26.608700
vt -51.536098 30.292200
vt 61.950001 32.691700
vt -12.936300 48.617199
vt 30.292200 -10.881600
vt 43.228500 46.293701
vt 58.374500 25.447001
vt 11.570600 2.720410
vt 24.506901 32.691700
vt 39.653000 11.844900
vt 31.657900 10.683200
vt 32.501900 -10.163600
vt -37.934101 11.570600
vt 17.355900 26.608700
vt -51.223499 15.604400
vt -37.934101 49.013699
vt 24.506901 48.617199
vt -58.374500 37.612999
vt -20.931400 -13.923100
vt 5.785290 62.219299
vt 49.013699 2.720410
vt -39.653000 -0.321100
vt -28.082399 15.604400
vt -41.862701 -7.122110
vt -15.925500 41.862701
vt -20.931400 37.612999
vt -49.013699 14.886400
vt -43.228500 6.923660
vt -39.653000 51.215000
vt -2.209780 -0.321100
vt -61.950001 20.525700
vt -18.721600 -7.122110
vt 9.360790 -10.163600
vt -15.925500 18.721600
vt -11.570600 14.886400
vt 2.209780 11.844900
vt -5.785290 22.849199
vt -30.292200 28.488501
vt -24.506901 20.525700
vt -24.506901 36.451199
vt 20.931400 25.447001
vt 12.936300 36.451199
vt 51.223499 47.455502
vt 18.721600 24.728901
vt 47.776600 18.721600
vt 28.082399 47.455502
vt 5.785290 58.459801
vt 25.768101 11.570600
vt 41.862701 24.728901
vt -32.501900 21.687401
vt 47.776600 41.862701
vt -9.360790 21.687401
vt -54.799000 42.534199
vt 25.768101 49.013699
vt -31.657900 42.534199
vt -17.355900 58.459801
vt 12.166000 30.292200
s 0
f 2/4/1 4/10/1 5/12/1
f 7/18/2 2/5/2 1/2/2
f 10/27/3 7/19/3 6/16/3
f 13/36/4 10/28/4 9/25/4
f 4/11/5 13/37/5 12/34/5
f 16/44/6 15/42/6 4/11/6
f 18/50/7 3/9/7 2/6/7
f 19/53/8 8/23/8 7/20/8
f 20/56/9 11/32/9 10/29/9
f 17/48/10 14/41/10 13/38/10
f 19/55/11 17/49/11 16/46/11
f 6/17/12 5/14/12 12/35/12
f 5/12/1 1/1/1 2/4/1
f 2/4/1 3/7/1 4/10/1
f 1/2/2 6/15/2 7/18/2
f 7/18/2 8/21/2 2/5/2
f 6/16/13 9/24/13 10/27/13
f 10/27/3 11/30/3 7/19/3
f 9/25/4 12/33/4 13/36/4
f 13/36/4 14/39/4 10/28/4
f 12/34/14 5/13/14 4/11/14
f 4/11/14 15/42/14 13/37/14
f 4/11/6 3/8/6 16/44/6
f 16/44/6 17/47/6 15/42/6
f 2/6/7 8/22/7 18/50/7
f 18/50/7 16/45/7 3/9/7
f 7/20/8 11/31/8 19/53/8
f 19/53/15 18/51/15 8/23/15
f 10/29/9 14/40/9 20/56/9
f 20/56/9 19/54/9 11/32/9
f 13/38/10 15/43/10 17/48/10
f 17/48/10 20/57/10 14/41/10
f 16/46/11 18/52/11 19/55/11
f 19/55/11 20/58/11 17/49/11
f 12/35/12 9/26/12 6/17/12
f 6/17/12 1/3/12 5/14/12
