# Blender 3.5.0
# www.blender.org
mtllib box1x1Inverse.mtl
o Cube
v -0.500000 0.500000 0.500000
v -0.500000 -0.500000 0.500000
v -0.500000 0.500000 -0.500000
v -0.500000 -0.500000 -0.500000
v 0.500000 0.500000 0.500000
v 0.500000 -0.500000 0.500000
v 0.500000 0.500000 -0.500000
v 0.500000 -0.500000 -0.500000
vn -0.0000 -1.0000 -0.0000
vn -0.0000 -0.0000 1.0000
vn -1.0000 -0.0000 -0.0000
vn -0.0000 1.0000 -0.0000
vn 1.0000 -0.0000 -0.0000
vn -0.0000 -0.0000 -1.0000
vt 20.000000 20.000000
vt 20.000000 20.000000
vt 20.000000 0.000000
vt 20.000000 0.000000
vt 20.000000 20.000000
vt 0.000000 20.000000
vt 20.000000 0.000000
vt 0.000000 0.000000
vt 20.000000 20.000000
vt 0.000000 20.000000
vt 0.000000 20.000000
vt 0.000000 0.000000
vt 20.000000 0.000000
vt 0.000000 0.000000
vt 0.000000 20.000000
vt 0.000000 0.000000
s 0
usemtl Material
f 3/4/1 5/10/1 1/1/1
f 8/16/2 3/5/2 4/7/2
f 6/13/3 7/15/3 8/16/3
f 8/16/4 2/2/4 6/11/4
f 4/8/5 1/1/5 2/3/5
f 2/3/6 5/10/6 6/12/6
f 3/4/1 7/14/1 5/10/1
f 8/16/2 7/15/2 3/5/2
f 6/13/3 5/9/3 7/15/3
f 8/16/4 4/7/4 2/2/4
f 4/8/5 3/6/5 1/1/5
f 2/3/6 1/1/6 5/10/6
